<svg width="400" height="400" viewBox="0 0 400 400" fill="none" xmlns="http://www.w3.org/2000/svg">
<path fill-rule="evenodd" clip-rule="evenodd" d="M392.593 107H338.615H61.3852H7.40741C3.31667 107 0 110.317 0 114.407V284.778C0 288.868 3.31667 292.185 7.40741 292.185H392.593C396.683 292.185 400 288.868 400 284.778V114.407C400 110.317 396.683 107 392.593 107ZM385.163 277.37H14.8148V121.815H25.6648L38.2796 140.739C39.7074 142.88 42.0556 144.037 44.45 144.037C45.8611 144.037 47.2889 143.635 48.5518 142.793C51.9555 140.524 52.8741 135.924 50.6055 132.52L43.4685 121.815H55.2926L67.9074 140.739C69.3352 142.88 71.6833 144.037 74.0778 144.037C75.4889 144.037 76.9167 143.635 78.1796 142.793C81.5833 140.524 82.5018 135.924 80.2333 132.52L73.0963 121.815H84.9204L97.5352 140.739C98.963 142.88 101.311 144.037 103.706 144.037C105.117 144.037 106.544 143.635 107.807 142.793C111.211 140.524 112.13 135.924 109.861 132.52L102.724 121.815H114.548L127.163 140.739C128.591 142.88 130.939 144.037 133.333 144.037C134.744 144.037 136.172 143.635 137.435 142.793C140.839 140.524 141.757 135.924 139.489 132.52L132.352 121.815H144.176L156.791 140.739C158.219 142.88 160.567 144.037 162.961 144.037C164.372 144.037 165.8 143.635 167.063 142.793C170.467 140.524 171.385 135.924 169.117 132.52L161.98 121.815H173.804L186.419 140.739C187.846 142.88 190.194 144.037 192.589 144.037C194 144.037 195.428 143.635 196.691 142.793C200.094 140.524 201.013 135.924 198.744 132.52L191.607 121.815H203.431L216.046 140.739C217.474 142.88 219.822 144.037 222.217 144.037C223.628 144.037 225.056 143.635 226.319 142.793C229.722 140.524 230.641 135.924 228.372 132.52L221.235 121.815H233.059L245.674 140.739C247.102 142.88 249.45 144.037 251.844 144.037C253.256 144.037 254.683 143.635 255.946 142.793C259.35 140.524 260.268 135.924 258 132.52L250.863 121.815H262.687L275.302 140.739C276.73 142.88 279.078 144.037 281.472 144.037C282.883 144.037 284.311 143.635 285.574 142.793C288.978 140.524 289.896 135.924 287.628 132.52L280.491 121.815H292.315L304.93 140.739C306.357 142.88 308.706 144.037 311.1 144.037C312.511 144.037 313.939 143.635 315.202 142.793C318.605 140.524 319.524 135.924 317.256 132.52L310.118 121.815H321.943L334.557 140.739C335.985 142.88 338.333 144.037 340.728 144.037C342.139 144.037 343.567 143.635 344.83 142.793C348.233 140.524 349.152 135.924 346.883 132.52L339.746 121.815H351.57L364.185 140.739C365.613 142.88 367.961 144.037 370.356 144.037C371.767 144.037 373.194 143.635 374.457 142.793C377.861 140.524 378.78 135.924 376.511 132.52L369.374 121.815H385.163V277.37ZM200 166.259C195.909 166.259 192.592 169.576 192.592 173.667V247.741C192.592 251.832 195.909 255.148 200 255.148C204.091 255.148 207.407 251.832 207.407 247.741V173.667C207.407 169.576 204.091 166.259 200 166.259ZM281.481 225.519H362.962C367.053 225.519 370.37 228.836 370.37 232.926C370.37 237.017 367.053 240.334 362.962 240.334H281.481C277.39 240.334 274.073 237.017 274.073 232.926C274.073 228.836 277.39 225.519 281.481 225.519ZM362.964 166.259C358.873 166.259 355.556 169.576 355.556 173.667V195.889H333.334V173.667C333.334 169.576 330.017 166.259 325.926 166.259C321.836 166.259 318.519 169.576 318.519 173.667V203.296C318.519 207.387 321.836 210.704 325.926 210.704H362.964C367.054 210.704 370.371 207.387 370.371 203.296V173.667C370.371 169.576 367.054 166.259 362.964 166.259ZM51.853 166.259H133.334C137.425 166.259 140.742 169.576 140.742 173.667C140.742 177.758 137.425 181.074 133.334 181.074H51.853C47.7623 181.074 44.4456 177.758 44.4456 173.667C44.4456 169.576 47.7623 166.259 51.853 166.259ZM133.334 188.481H51.853C47.7623 188.481 44.4456 191.798 44.4456 195.889C44.4456 199.979 47.7623 203.296 51.853 203.296H133.334C137.425 203.296 140.742 199.979 140.742 195.889C140.742 191.798 137.425 188.481 133.334 188.481ZM281.481 247.741H362.962C367.053 247.741 370.37 251.057 370.37 255.148C370.37 259.239 367.053 262.555 362.962 262.555H281.481C277.39 262.555 274.073 259.239 274.073 255.148C274.073 251.057 277.39 247.741 281.481 247.741Z" fill="url(#paint0_linear_477_37)"/>
<defs>
<linearGradient id="paint0_linear_477_37" x1="400" y1="107" x2="5.34718e-06" y2="293.667" gradientUnits="userSpaceOnUse">
<stop stop-color="#0181C4"/>
<stop offset="1" stop-color="#8BAF4D"/>
</linearGradient>
</defs>
</svg>
