<svg width="400" height="400" viewBox="0 0 400 400" fill="none" xmlns="http://www.w3.org/2000/svg">
<g clip-path="url(#clip0_460_2)">
<path fill-rule="evenodd" clip-rule="evenodd" d="M59.0869 313.043H198.217C203.021 313.043 206.913 309.148 206.913 304.347C206.913 299.547 203.021 295.652 198.217 295.652H59.0869C54.2918 295.652 50.3913 291.751 50.3913 286.956V26.0869C50.3913 21.2918 54.2918 17.3913 59.0869 17.3913H267.782C272.577 17.3913 276.478 21.2918 276.478 26.0869V174.77C238.803 180.389 209.811 212.958 209.811 252.174C209.811 295.33 244.919 330.435 288.072 330.435C331.225 330.435 366.333 295.33 366.333 252.174C366.333 210.969 334.325 177.102 293.869 174.126V26.0869C293.869 11.7017 282.167 0 267.782 0H59.0869C44.7017 0 33 11.7017 33 26.0869V286.956C33 301.341 44.7017 313.043 59.0869 313.043ZM76.478 86.9518L232.999 86.9575C237.8 86.9575 241.695 83.0626 241.695 78.2619C241.695 73.4612 237.803 69.5662 232.999 69.5662L76.478 69.5605C71.6774 69.5605 67.7824 73.4555 67.7824 78.2562C67.7824 83.0569 71.6745 86.9518 76.478 86.9518ZM198.217 121.738L76.478 121.732C71.6745 121.732 67.7824 117.837 67.7824 113.036C67.7824 108.236 71.6774 104.341 76.478 104.341L198.217 104.347C203.02 104.347 206.913 108.241 206.913 113.042C206.913 117.843 203.018 121.738 198.217 121.738ZM155.016 248.539C156.024 252.468 159.556 255.072 163.431 255.072C164.147 255.072 164.875 254.988 165.6 254.801C170.25 253.606 173.053 248.868 171.858 244.214C171.544 242.98 168.473 232.071 158.172 228.051C150.861 225.198 142.584 226.715 133.58 232.563C133.155 232.835 132.776 233.067 132.439 233.265C132.167 232.373 131.901 231.393 131.681 230.584L131.681 230.584L131.681 230.583L131.646 230.457C129.991 224.332 126.543 211.594 113.197 211.594C93.3851 211.594 81.6154 233.396 80.3388 235.881C78.1451 240.155 79.8293 245.397 84.1035 247.588C88.3749 249.796 93.6172 248.098 95.8109 243.829C97.3904 240.749 104.812 229.404 112.848 229.002C113.567 230.225 114.363 233.158 114.858 234.998L114.86 235.005C116.343 240.479 118.374 247.974 125.58 250.736C133.084 253.6 140.585 248.743 143.048 247.147C146.833 244.695 150.105 243.614 151.82 244.242C153.459 244.854 154.721 247.526 155.016 248.539ZM330.452 235.134L284.075 281.511C282.377 283.209 280.152 284.058 277.927 284.058C275.702 284.058 273.477 283.209 271.779 281.511L245.692 255.43C242.295 252.033 242.295 246.53 245.692 243.133C249.083 239.737 254.591 239.737 257.988 243.133L277.927 263.067L318.156 222.838C321.552 219.441 327.055 219.441 330.452 222.838C333.848 226.235 333.849 231.737 330.452 235.134ZM250.391 343.882C261.678 349.727 274.457 353.079 288.049 353.079C301.659 353.079 314.455 349.72 325.753 343.86V391.303C325.753 394.502 323.998 397.44 321.184 398.957C319.894 399.654 318.473 399.999 317.057 399.999C315.387 399.999 313.723 399.518 312.273 398.567L288.072 382.633L263.87 398.567C261.192 400.327 257.773 400.477 254.959 398.957C252.146 397.44 250.391 394.502 250.391 391.303V343.882Z" fill="url(#paint0_linear_460_2)"/>
</g>
<defs>
<linearGradient id="paint0_linear_460_2" x1="368" y1="-6.73714e-07" x2="32.9994" y2="400" gradientUnits="userSpaceOnUse">
<stop stop-color="#0181C4"/>
<stop offset="1" stop-color="#8BAF4D"/>
</linearGradient>
<clipPath id="clip0_460_2">
<rect width="400" height="400" fill="white"/>
</clipPath>
</defs>
</svg>
