<svg width="400" height="400" viewBox="0 0 400 400" fill="none" xmlns="http://www.w3.org/2000/svg">
<path fill-rule="evenodd" clip-rule="evenodd" d="M17.0133 157.904V158.858C17.0133 158.858 17 158.918 17 158.944V365.769C17 384.645 32.3819 400 51.2908 400H348.513C367.422 400 382.804 384.645 382.804 365.769V158.944L382.801 158.93L382.797 158.909C382.794 158.891 382.791 158.87 382.791 158.858V156.304C382.791 154.404 381.984 152.597 380.564 151.33L345.926 120.573V35.2226C345.926 31.5421 342.946 28.5551 339.259 28.5551H242.441L218.071 6.90584C207.716 -2.30194 192.101 -2.30861 181.713 6.92584L157.67 28.5551H60.5519C56.8648 28.5551 53.8845 31.5421 53.8845 35.2226V121.793L19.2269 152.95C17.8201 154.21 17.02 156.017 17.02 157.911L17.0133 157.904ZM348.513 386.665H51.2908C39.7428 386.665 30.3349 377.291 30.3349 365.769V173.779L46.1769 187.821L91.8757 228.346L145.796 276.172L50.1973 360.969C47.4437 363.409 47.197 367.629 49.6373 370.383C50.9508 371.87 52.791 372.623 54.6245 372.623C56.1981 372.623 57.7849 372.07 59.0518 370.943L155.843 285.086L180.593 307.042C186.094 311.936 192.988 314.383 199.895 314.383C206.803 314.383 213.69 311.936 219.191 307.049L243.921 285.119L340.752 370.95C342.019 372.07 343.599 372.623 345.173 372.623C347.007 372.623 348.847 371.863 350.16 370.383C352.601 367.623 352.347 363.416 349.594 360.969L253.969 276.205L313.516 223.385L352.994 188.381L369.469 173.786V365.783C369.469 377.304 360.068 386.678 348.513 386.678V386.665ZM367.582 157.624L349.553 173.606L345.92 176.826V138.395L367.582 157.624ZM190.601 16.867C195.895 12.1465 203.883 12.1465 209.203 16.867L222.358 28.5485H177.606L190.601 16.8604V16.867ZM67.2194 41.8901H332.585V188.641L306.468 211.804L241.034 269.824C240.14 270.198 239.3 270.724 238.62 271.498C238.459 271.68 238.359 271.884 238.259 272.09C238.198 272.216 238.136 272.343 238.06 272.465L210.35 297.034C204.383 302.315 195.415 302.315 189.447 297.034L161.811 272.525C161.788 272.485 161.766 272.445 161.745 272.405C161.728 272.373 161.711 272.341 161.695 272.309L161.666 272.25C161.654 272.226 161.642 272.203 161.631 272.179L161.615 272.147L161.615 272.147C161.493 271.897 161.372 271.648 161.177 271.431C160.471 270.631 159.597 270.104 158.67 269.738L98.4765 216.364L67.2194 188.634V41.8901ZM53.8778 176.826L48.9105 172.419L33.1019 158.397L53.8845 139.722V176.82L53.8778 176.826ZM147.231 89.8291H293.722C297.409 89.8291 300.389 86.8421 300.389 83.1616C300.389 79.4812 297.409 76.4941 293.722 76.4941H147.231C143.543 76.4941 140.563 79.4812 140.563 83.1616C140.563 86.8421 143.543 89.8291 147.231 89.8291ZM122.226 89.8291H106.024C102.337 89.8291 99.3569 86.8421 99.3569 83.1616C99.3569 79.4812 102.337 76.4941 106.024 76.4941H122.226C125.913 76.4941 128.894 79.4812 128.894 83.1616C128.894 86.8421 125.913 89.8291 122.226 89.8291ZM293.74 107.172H106.057C102.37 107.172 99.3895 110.159 99.3895 113.839C99.3895 117.52 102.37 120.507 106.057 120.507H293.74C297.427 120.507 300.407 117.52 300.407 113.839C300.407 110.159 297.427 107.172 293.74 107.172ZM300.38 144.503C300.38 148.184 297.4 151.171 293.713 151.171H274.971C271.284 151.171 268.303 148.184 268.303 144.503C268.303 140.823 271.284 137.836 274.971 137.836H293.713C297.4 137.836 300.38 140.823 300.38 144.503ZM106.024 151.171H250.042C253.729 151.171 256.709 148.184 256.709 144.503C256.709 140.823 253.729 137.836 250.042 137.836H106.024C102.337 137.836 99.3569 140.823 99.3569 144.503C99.3569 148.184 102.337 151.171 106.024 151.171ZM106.057 168.465H293.74C297.427 168.465 300.407 171.452 300.407 175.132C300.407 178.813 297.427 181.8 293.74 181.8H106.057C102.37 181.8 99.3895 178.813 99.3895 175.132C99.3895 171.452 102.37 168.465 106.057 168.465Z" fill="url(#paint0_linear_477_22)"/>
<defs>
<linearGradient id="paint0_linear_477_22" x1="381" y1="-9.69413e-06" x2="17" y2="400" gradientUnits="userSpaceOnUse">
<stop stop-color="#0181C4"/>
<stop offset="1" stop-color="#8BAF4D"/>
</linearGradient>
</defs>
</svg>
