<svg width="400" height="400" viewBox="0 0 400 400" fill="none" xmlns="http://www.w3.org/2000/svg">
<path fill-rule="evenodd" clip-rule="evenodd" d="M17.0133 158.858V157.904L17.02 157.911C17.02 156.017 17.8201 154.21 19.2269 152.95L53.8845 121.793V35.2226C53.8845 31.5421 56.8648 28.5551 60.5519 28.5551H157.67L181.713 6.92584C192.101 -2.30861 207.716 -2.30194 218.071 6.90584L242.441 28.5551H339.259C342.946 28.5551 345.926 31.5421 345.926 35.2226V120.573L380.564 151.33C381.984 152.597 382.791 154.404 382.791 156.304V158.858C382.791 158.884 382.804 158.944 382.804 158.944V365.769C382.804 384.645 367.422 400 348.513 400H51.2908C32.3819 400 17 384.645 17 365.769V158.944C17 158.918 17.0133 158.858 17.0133 158.858ZM51.2908 386.665H348.513V386.678C360.068 386.678 369.469 377.304 369.469 365.783V173.786L352.994 188.381L313.516 223.385L253.969 276.205L349.594 360.969C352.347 363.416 352.601 367.623 350.16 370.383C348.847 371.863 347.007 372.623 345.173 372.623C343.599 372.623 342.019 372.07 340.752 370.95L243.921 285.119L219.191 307.049C213.69 311.936 206.803 314.383 199.895 314.383C192.988 314.383 186.094 311.936 180.593 307.042L155.843 285.086L59.0518 370.943C57.7849 372.07 56.1981 372.623 54.6245 372.623C52.791 372.623 50.9508 371.87 49.6373 370.383C47.197 367.629 47.4437 363.409 50.1973 360.969L145.796 276.172L91.8757 228.346L46.1769 187.821L30.3349 173.779V365.769C30.3349 377.291 39.7428 386.665 51.2908 386.665ZM349.553 173.606L367.582 157.624L345.92 138.395V176.826L349.553 173.606ZM209.203 16.867C203.883 12.1465 195.895 12.1465 190.601 16.867V16.8604L177.606 28.5485H222.358L209.203 16.867ZM332.585 41.8901H67.2194V188.634L98.4765 216.364L158.67 269.738C159.597 270.104 160.471 270.631 161.177 271.431C161.372 271.648 161.493 271.897 161.615 272.147C161.677 272.274 161.739 272.401 161.811 272.525L189.447 297.034C195.415 302.315 204.383 302.315 210.35 297.034L238.06 272.465C238.136 272.343 238.198 272.216 238.259 272.09C238.359 271.884 238.459 271.68 238.62 271.498C239.3 270.724 240.14 270.198 241.034 269.824L306.468 211.804L332.585 188.641V41.8901ZM48.9105 172.419L53.8778 176.826L53.8845 176.82V139.722L33.1019 158.397L48.9105 172.419ZM207.006 192C195.332 191.946 183.735 190.117 172.611 186.576C154.837 180.63 141.636 165.583 138.052 147.187C134.131 128.301 141.277 108.331 157.653 92.4002C159.41 90.6889 161.236 89.0496 163.131 87.4824C179.898 73.4448 202.504 68.5664 223.568 74.4398C243.961 80.9487 258.052 99.5852 258.757 120.98C259.52 133.295 255.506 145.431 247.55 154.862C241.413 162.592 231.471 166.243 221.79 164.321C217.831 163.5 214.377 161.102 212.223 157.68C211.869 157.072 211.564 156.442 211.307 155.797C210.72 156.361 210.123 156.915 209.516 157.458C203.821 162.263 196.628 164.93 189.177 164.999C183.673 165.093 178.303 163.288 173.974 159.887C163.978 151.887 163.703 137.99 166.505 128.526C167.449 125.374 168.716 122.328 170.286 119.437C174.194 111.553 180.442 105.069 188.176 100.872C197.807 95.8742 209.574 97.7693 217.149 105.538C217.862 106.319 218.541 107.126 219.185 107.959C219.742 104.964 220.068 103.119 220.08 103.05C220.404 101.217 221.68 99.6962 223.429 99.0599C225.178 98.4237 227.134 98.7689 228.559 99.9653C229.984 101.162 230.663 103.028 230.34 104.861L230.334 104.892L230.334 104.892C230.118 106.11 227.01 123.628 223.334 139.543C223.29 139.881 223.212 140.216 223.102 140.542C222.388 143.595 221.656 146.576 220.921 149.354C220.588 150.331 220.671 151.402 221.152 152.316C221.872 153.313 222.959 153.982 224.173 154.177C230.099 155.166 236.085 152.789 239.718 148.003C245.896 140.612 248.992 131.125 248.363 121.512C247.853 104.482 236.686 89.6138 220.472 84.3796C202.775 79.5117 183.815 83.6703 169.779 95.4983C168.105 96.8873 166.478 98.3413 164.917 99.862C156.82 107.737 143.892 124.079 148.248 145.066C151.175 159.729 161.648 171.745 175.772 176.649C200.197 184.441 235.294 185.379 253.786 162.386C255.603 160.198 258.839 159.872 261.056 161.654C263.272 163.436 263.65 166.666 261.903 168.911C248.229 185.916 227.42 192 207.006 192ZM202.69 149.591C206.788 145.901 210.339 141.648 213.237 136.959C214.217 132.695 215.162 128.294 216.02 124.132C215.873 123.881 215.746 123.614 215.64 123.333C214.405 119.413 212.353 115.8 209.619 112.732C205.202 108.215 198.321 107.187 192.778 110.217C186.978 113.488 182.316 118.454 179.419 124.449C178.202 126.696 177.219 129.061 176.485 131.509C174.461 138.354 174.906 147.288 180.49 151.76C186.595 156.663 196.895 154.59 202.69 149.591Z" fill="url(#paint0_linear_477_14)"/>
<defs>
<linearGradient id="paint0_linear_477_14" x1="381" y1="2.2268e-06" x2="17" y2="400" gradientUnits="userSpaceOnUse">
<stop stop-color="#0181C4"/>
<stop offset="1" stop-color="#8BAF4D"/>
</linearGradient>
</defs>
</svg>
