<svg width="400" height="400" viewBox="0 0 400 400" fill="none" xmlns="http://www.w3.org/2000/svg">
<g clip-path="url(#clip0_477_2)">
<path fill-rule="evenodd" clip-rule="evenodd" d="M48.6196 47.9878C45.1892 48.5763 42.8847 51.835 43.4732 55.2654C44.0003 58.3357 46.6657 60.5047 49.6785 60.5047C50.0322 60.5047 50.3915 60.4748 50.7516 60.4133C54.438 59.7807 58.3774 59.3781 62.4601 59.2181C65.9386 59.081 68.6473 56.1502 68.511 52.6717C68.3739 49.1933 65.4509 46.5019 61.9646 46.6208C57.335 46.8028 52.8449 47.263 48.6196 47.9878ZM157.473 82.4847C153.966 81.2722 150.273 79.9557 145.498 78.216C142.228 77.024 140.542 73.4053 141.734 70.1348C142.926 66.8652 146.544 65.1792 149.814 66.3712C154.52 68.0864 158.153 69.3809 161.592 70.569C164.882 71.7067 166.626 75.2954 165.49 78.5856C164.588 81.1942 162.145 82.8314 159.532 82.8314C158.85 82.8314 158.155 82.7203 157.473 82.4847ZM99.3742 63.0913L98.3917 62.8738C94.9905 62.1317 92.8357 58.773 93.5771 55.3725C94.3185 51.9713 97.6803 49.8188 101.078 50.5578L102.142 50.7942C105.794 51.6128 109.584 52.6063 113.724 53.8307C117.062 54.8171 118.968 58.3247 117.981 61.6621C117.17 64.4031 114.659 66.179 111.938 66.179C111.347 66.179 110.746 66.0954 110.149 65.919C106.282 64.775 102.757 63.8508 99.3742 63.0913ZM37.5855 178.157C35.8955 178.157 34.2094 177.481 32.9678 176.145C29.9557 172.905 27.0808 169.58 24.4225 166.261C22.2456 163.545 22.6837 159.578 25.4003 157.402C28.116 155.224 32.0822 155.662 34.2599 158.38C36.7267 161.458 39.3976 164.548 42.2 167.561C44.5699 170.112 44.4242 174.099 41.8754 176.47C40.6613 177.598 39.121 178.157 37.5855 178.157ZM393.132 4.02463C395.585 3.80876 397.928 5.02523 399.155 7.1509C400.383 9.27658 400.265 11.9215 398.852 13.9297L311.315 138.307C310.112 140.015 308.173 140.983 306.16 140.983C305.525 140.983 304.885 140.886 304.258 140.688C301.638 139.857 299.857 137.426 299.857 134.678L299.862 75.9178C298.726 76.5804 297.591 77.232 296.459 77.8576C295.493 78.3925 294.446 78.6462 293.413 78.6462C291.195 78.6462 289.043 77.4731 287.893 75.3939C286.208 72.348 287.311 68.5126 290.356 66.8274C292.591 65.5904 294.845 64.2636 297.092 62.877L239.064 29.3799C236.685 28.0058 235.469 25.2483 236.061 22.5648C236.653 19.8813 238.915 17.8896 241.652 17.6438L393.132 4.02463ZM207.527 95.0891C203.346 94.5604 199.016 93.8498 194.658 92.9792C191.244 92.2969 189.03 88.9768 189.712 85.5637C190.395 82.1499 193.719 79.9383 197.128 80.6183C201.194 81.4306 205.225 82.0916 209.109 82.5832C212.563 83.0197 215.008 86.1735 214.571 89.6268C214.169 92.8121 211.454 95.1395 208.326 95.1395C208.062 95.1395 207.795 95.123 207.527 95.0891ZM9.28437 87.2939C8.34995 87.2939 7.40136 87.0859 6.50633 86.6447C3.38321 85.1083 2.09662 81.3289 3.63376 78.2058C5.75864 73.8891 8.5028 69.9048 11.7906 66.3641C14.1597 63.8153 18.1479 63.6664 20.699 66.0348C23.2494 68.4039 23.3967 72.3921 21.0284 74.9432C18.5741 77.585 16.528 80.5552 14.9444 83.7721C13.8477 86.0002 11.6102 87.2939 9.28437 87.2939ZM4.88174 111.793C8.27668 111.007 11.6598 113.119 12.4453 116.51C13.2875 120.147 14.4599 123.895 15.9324 127.653C17.2025 130.895 15.6031 134.552 12.3626 135.821C11.6078 136.117 10.8302 136.257 10.0651 136.257C7.54711 136.257 5.16853 134.737 4.19472 132.251C2.5008 127.924 1.14409 123.586 0.163975 119.356C-0.621532 115.964 1.49075 112.578 4.88174 111.793ZM246.916 94.9221C246.61 94.967 246.304 94.9882 246.003 94.9882C242.923 94.9882 240.227 92.727 239.772 89.589C239.272 86.1444 241.66 82.9472 245.105 82.4469C249.036 81.8765 252.994 81.1044 256.87 80.1503C260.253 79.3222 263.666 81.3857 264.497 84.7648C265.328 88.1456 263.262 91.5594 259.882 92.3914C255.611 93.4416 251.248 94.2933 246.916 94.9221ZM293.303 374.284V252.134C293.303 245.431 290.467 239.375 285.317 235.083L257.177 211.639V136.131C257.177 127.507 250.161 120.492 241.538 120.492H70.3081C61.6841 120.492 54.6689 127.508 54.6689 136.131V211.639L26.5293 235.083C21.3033 239.437 18.5411 245.332 18.5411 252.134V374.283C18.5411 386.519 28.4966 396.475 40.733 396.475H271.111C283.348 396.475 293.303 386.52 293.303 374.284ZM276.138 243.846L257.175 255.194V228.048L276.138 243.846ZM54.6681 255.194L35.7056 243.846L54.6681 228.047V255.194ZM101.427 297.866L31.147 374.044V255.808L101.427 297.866ZM199.365 304.48L272.505 383.756C272.049 383.823 271.585 383.87 271.11 383.87H40.7322C40.2571 383.87 39.7939 383.823 39.3377 383.756L112.477 304.48L144.525 323.659C148.093 325.794 152.008 326.862 155.921 326.862C159.835 326.862 163.749 325.794 167.316 323.659L199.365 304.48ZM210.416 297.866L280.697 255.808L280.696 374.044L210.416 297.866ZM98.1187 210.049C98.1187 177.67 124.611 151.178 156.99 151.178C189.369 151.178 215.861 177.67 215.861 210.049C215.861 242.428 189.369 268.92 156.99 268.92C124.611 268.92 98.1187 242.428 98.1187 210.049ZM143.094 237.364C144.266 238.535 146.165 238.535 147.337 237.364L194.049 190.651C196.344 188.357 196.35 184.638 194.064 182.336C191.766 180.021 188.025 180.015 185.719 182.321L147.334 220.706C146.164 221.876 144.266 221.878 143.094 220.709L128.234 205.89C125.939 203.602 122.225 203.604 119.933 205.896C117.64 208.19 117.64 211.909 119.933 214.203L143.094 237.364Z" fill="url(#paint0_linear_477_2)"/>
</g>
<defs>
<linearGradient id="paint0_linear_477_2" x1="402.287" y1="3.99998" x2="8.52444e-06" y2="396.475" gradientUnits="userSpaceOnUse">
<stop stop-color="#0181C4"/>
<stop offset="1" stop-color="#8BAF4D"/>
</linearGradient>
<clipPath id="clip0_477_2">
<rect width="400" height="400" fill="white"/>
</clipPath>
</defs>
</svg>
