<svg width="400" height="400" viewBox="0 0 400 400" fill="none" xmlns="http://www.w3.org/2000/svg">
<g clip-path="url(#clip0_477_58)">
<path fill-rule="evenodd" clip-rule="evenodd" d="M182.878 62.6003L195.045 50.433C153.601 51.777 114.951 70.1554 87.7844 100.912H61.5288C92.5997 57.5573 141.916 31.3338 195.204 29.8665L182.878 17.5405C178.866 13.5275 178.866 7.02135 182.878 3.00915C186.891 -1.00305 193.397 -1.00305 197.409 3.00915L227.205 32.8043C231.217 36.8174 231.217 43.3227 227.205 47.3357L197.409 77.1317C195.403 79.1382 192.773 80.1411 190.144 80.1411C187.514 80.1411 184.884 79.1382 182.878 77.1317C178.866 73.1187 178.866 66.6133 182.878 62.6003ZM312.066 100.912C297.05 83.9006 278.416 70.5094 257.318 61.741C252.077 59.5627 249.595 53.5489 251.773 48.3095C253.951 43.0692 259.963 40.5859 265.205 42.7643C294.582 54.9735 319.778 75.0328 338.324 100.912H312.066ZM201.619 349.63C225.134 349.375 247.589 343.834 268.381 333.119C282.499 325.845 295.467 316.248 306.645 304.893H333.975C318.855 324.173 299.519 340.193 277.795 351.388C254.389 363.45 228.068 369.923 201.57 370.18L213.849 382.46C217.862 386.473 217.862 392.979 213.849 396.992C211.843 398.997 209.213 400 206.584 400.001C203.954 400.001 201.325 398.997 199.318 396.992L169.522 367.196C167.595 365.268 166.513 362.654 166.513 359.93C166.513 357.204 167.595 354.591 169.522 352.664L199.318 322.869C203.331 318.857 209.837 318.857 213.849 322.869C217.862 326.882 217.862 333.388 213.849 337.4L201.619 349.63ZM145.33 339.384C125.712 331.693 107.962 319.897 93.2122 304.891H65.8813C84.6863 328.892 109.561 347.434 137.829 358.517C139.061 358.999 140.329 359.228 141.576 359.228C145.68 359.228 149.557 356.753 151.145 352.701C153.217 347.418 150.614 341.456 145.33 339.384ZM362.582 117.717H37.275C31.5999 117.717 27 122.317 27 127.992V277.813C27 283.488 31.5999 288.088 37.275 288.088H362.582C368.257 288.088 372.857 283.488 372.857 277.813V127.992C372.857 122.317 368.257 117.717 362.582 117.717ZM306.254 267.538H94.1857C93.3308 256.071 88.4497 245.279 80.099 236.928C71.4014 228.23 59.6829 223.228 47.5509 222.753V183.568C59.5514 183.029 70.8958 178.08 79.5943 169.381C87.9483 161.027 92.8861 149.884 93.6851 138.267H305.718C306.511 149.842 311.403 160.744 319.823 169.165C328.506 177.847 340.198 182.851 352.309 183.34V222.535C340.331 223.088 329.012 228.028 320.329 236.712C312.043 244.996 307.113 256.024 306.254 267.538ZM352.307 162.785C345.583 162.357 339.254 159.535 334.353 154.634C329.851 150.132 327.1 144.399 326.354 138.267H352.307V162.785ZM73.0922 138.267C72.3894 144.476 69.6291 150.284 65.0629 154.85C60.2821 159.632 54.1138 162.444 47.5509 162.968V138.266L73.0922 138.267ZM47.5501 243.304C54.2971 243.718 60.6512 246.542 65.5668 251.458C69.9982 255.89 72.7338 261.513 73.5303 267.537H47.5501V243.304ZM326.862 267.538C327.617 261.437 330.363 255.739 334.859 251.243C339.624 246.477 345.768 243.667 352.308 243.129V267.538H326.862ZM199.429 251.185C226.895 251.185 249.161 228.92 249.161 201.454C249.161 173.988 226.895 151.723 199.429 151.723C171.964 151.723 149.698 173.988 149.698 201.454C149.698 228.92 171.964 251.185 199.429 251.185ZM230.255 201.454C230.255 218.478 216.454 232.279 199.429 232.279C182.405 232.279 168.604 218.478 168.604 201.454C168.604 184.43 182.405 170.629 199.429 170.629C216.454 170.629 230.255 184.43 230.255 201.454Z" fill="url(#paint0_linear_477_58)"/>
</g>
<defs>
<linearGradient id="paint0_linear_477_58" x1="371" y1="1.34198e-05" x2="26.9991" y2="400" gradientUnits="userSpaceOnUse">
<stop stop-color="#0181C4"/>
<stop offset="1" stop-color="#8BAF4D"/>
</linearGradient>
<clipPath id="clip0_477_58">
<rect width="400" height="400" fill="white"/>
</clipPath>
</defs>
</svg>
