<svg width="40" height="40" viewBox="0 0 40 40" fill="none" xmlns="http://www.w3.org/2000/svg">
<path d="M32.8558 35.3208C29.2541 38.3429 24.7031 39.9996 20.0014 40L20.0004 26C21.411 25.9998 22.7762 25.5029 23.8568 24.5963L32.8558 35.3208Z" fill="#662D91"/>
<path d="M19.9998 40C15.2984 40 10.7471 38.3436 7.14526 35.3217L16.1436 24.5965C17.224 25.5032 18.5894 26 19.9998 26V40Z" fill="#C1272D"/>
<path d="M0.303885 23.473C-0.512531 18.8428 0.328322 14.0731 2.67882 10.0012L14.8037 17.0005C14.0985 18.2219 13.8462 19.6527 14.0912 21.0419L0.303885 23.473Z" fill="#E86110"/>
<path d="M2.67957 10C5.03035 5.92835 8.74043 2.815 13.1583 1.20667L17.9475 14.3619C16.6223 14.8444 15.5091 15.7786 14.8039 17.0001L2.67957 10Z" fill="#F5921E"/>
<path d="M26.8404 1.20618C31.2585 2.8142 34.9687 5.92727 37.3197 9.99879L25.196 16.9996C24.4906 15.7782 23.3777 14.8442 22.0522 14.3619L26.8404 1.20618Z" fill="#39B54A"/>
<path d="M37.3205 10C39.6714 14.0717 40.5124 18.8413 39.6964 23.4715L25.9089 21.0415C26.1537 19.6523 25.9014 18.2215 25.1962 17L37.3205 10Z" fill="#00A99D"/>
<path d="M39.6962 23.4729C38.8797 28.1031 36.4583 32.2975 32.8568 35.32L23.8571 24.596C24.9375 23.6892 25.6639 22.4308 25.9089 21.0419L39.6962 23.4729Z" fill="#0071BC"/>
<path d="M7.14421 35.3208C3.54261 32.2987 1.12081 28.1044 0.304077 23.4744L14.0912 21.0423C14.3361 22.4313 15.0628 23.6896 16.1432 24.5963L7.14421 35.3208Z" fill="#FF421D"/>
<path d="M13.1595 1.20615C17.5776 -0.401887 22.4209 -0.402054 26.839 1.20567L22.0517 14.3617C20.7263 13.8794 19.2732 13.8794 17.9478 14.3619L13.1595 1.20615Z" fill="#FDB62F"/>
</svg>
