<svg width="88" height="100" viewBox="0 0 88 100" fill="none" xmlns="http://www.w3.org/2000/svg">
<path fill-rule="evenodd" clip-rule="evenodd" d="M57.3555 32.4127C57.305 32.4906 57.4406 32.5894 57.3835 32.6789C57.2706 32.8554 57.5013 33.0812 57.2318 33.2111C57.1054 33.2721 57.1496 33.4788 56.9937 33.6103C56.7092 33.8506 56.8053 33.9731 56.7422 34.0362C56.7144 34.0628 56.6744 34.0762 56.6877 34.1425C56.6877 34.1559 56.6877 34.1559 56.6838 34.1559C56.5987 34.1825 56.6092 34.3155 56.5893 34.4221L56.4484 34.5684C56.3512 34.829 55.8739 35.2693 55.6301 35.4068C55.5822 35.4334 55.5595 35.4867 55.5198 35.5264L54.4912 36.4179C54.3477 36.5455 54.3521 36.6116 53.9522 36.9367L53.0341 37.7218C52.5372 38.3061 52.2296 38.3989 51.6077 38.8129L51.3256 39.0125C50.3965 39.6639 49.3272 39.0456 48.9689 38.3206L47.331 36.3512C47.2141 36.3223 47.3237 36.1783 47.3017 36.1383C47.1896 35.9338 46.9308 35.6321 46.9105 35.4065C46.8955 35.2413 46.5538 35.2925 46.6695 35.1272C46.7135 35.0646 46.6875 35.062 46.631 34.9409C46.4115 34.9409 46.4797 34.4969 46.5791 34.3954C46.638 34.3354 46.7794 34.4169 46.7934 34.3688C46.7948 34.3555 46.7948 34.3421 46.8306 34.3022C46.9631 34.3022 46.9979 34.103 46.9981 34.1026C47.0928 33.9836 47.9557 34.1538 48.2091 34.1823C49.0259 34.2741 49.1662 34.4644 49.7512 34.954C49.8237 35.0148 49.9101 35.0001 49.8989 35.087L50.4112 35.4995C50.4447 35.4252 50.4832 35.4972 50.6069 35.3133C50.6896 35.1901 51.5048 34.4875 51.7512 34.1157C51.758 34.1023 51.7619 34.1023 51.7659 34.1023C52.4895 33.3406 52.6961 33.1726 53.4597 32.5721C53.4957 32.5455 53.5436 32.5455 53.5796 32.5188C53.7601 32.3889 53.7535 32.3435 53.9961 32.2526C54.088 32.1727 54.1731 32.093 54.2729 32.0264C54.4891 31.8773 55.0986 31.54 55.3426 31.6138C55.5366 31.6727 55.7767 31.5276 56.4963 31.6936C56.8149 31.7669 57.0809 32.0914 57.3052 32.1594L57.3555 32.4127ZM52.2726 23.95C51.8919 23.8296 51.9136 23.6973 51.8042 23.6707C51.5923 23.6188 51.4273 23.3858 51.3172 23.3381C50.7523 23.0927 49.5142 23.1368 48.8913 23.1918C47.9982 23.2705 47.1405 23.6244 46.2888 23.8971C44.849 24.3578 43.373 25.7242 42.4325 26.9043C41.55 28.0121 41.3371 28.5637 40.8065 29.7784C39.7437 32.1164 39.6035 35.5012 40.4473 37.9086C41.4593 40.796 43.2838 43.1861 45.984 44.6815C48.2808 45.9534 50.9145 46.5319 53.5432 46.225C54.2429 46.1434 54.8918 45.9277 55.3702 45.8525C55.8458 45.7777 57.1818 45.1517 57.6748 44.9077C58.1198 44.6876 59.1986 43.9329 59.6334 43.6171C60.95 42.6167 62.2385 41.0209 62.9785 39.5054C63.5118 38.4134 63.6163 37.9083 63.9033 36.7776C64.1473 35.8162 64.1747 33.9083 64.0604 32.9454L63.8463 31.7211L63.6067 30.936C63.5934 30.6053 63.3936 30.2917 63.254 29.9247C62.8368 28.8274 62.195 27.8347 61.4604 26.9307C60.7027 25.9981 60.095 25.5187 59.064 24.9216C57.9765 24.2917 56.6599 23.8429 55.43 23.6973C54.6422 23.6199 53.4768 23.5094 52.745 23.7106C52.4634 23.788 52.8857 23.8373 52.9327 23.9102L52.7875 24.0565L52.8901 24.1498C52.7345 24.1701 52.3839 24.186 52.2726 24.2828C52.6557 24.5668 53.5628 24.7883 54.0183 24.7883C54.1492 24.7883 54.7422 24.9517 54.8128 25.081C54.8796 25.2039 55.5125 25.3409 55.7269 25.4002C56.5477 25.6277 58.9074 27.5241 58.9934 27.9684C59.0435 28.226 59.2833 28.3819 59.4885 28.6736C61.1577 31.0459 61.6586 33.7562 60.8616 36.5908C60.2887 38.6284 58.6485 40.5658 56.8111 41.5806C55.4716 42.3204 54.0324 42.7219 52.5145 42.858C52.1025 42.8949 50.7787 42.7974 50.5066 42.7383L49.3038 42.3524C48.8306 42.1942 48.6186 42.0507 48.1981 41.8602C47.6234 41.5998 46.8761 41.0038 46.3872 40.5962C44.6917 39.1826 43.6159 36.876 43.513 34.7016C43.5065 34.4887 43.4518 34.2758 43.4731 34.0495L43.6035 32.7855C43.679 31.9607 44.4019 29.723 44.9794 29.0197C45.2055 28.7444 45.2066 28.5579 45.3546 28.3279L45.6979 27.902C45.8779 27.5024 46.0527 27.5996 46.282 27.1702C46.5057 26.7516 47.9494 25.9285 48.419 25.6001C49.0935 25.1286 49.9157 25.0765 50.142 24.8816C50.6183 24.4714 51.1874 24.5228 51.4074 24.3228C51.6025 24.1454 51.8127 24.244 51.869 24.1631C51.9613 24.043 52.1156 24.0163 52.2726 23.95ZM66.324 9.08685C66.3041 9.04688 66.3399 9.03356 66.3439 9.00715V8.83419L66.8922 7.75625C66.9399 7.65224 66.9121 7.5674 67.1383 7.23738C67.1582 7.21073 67.1516 7.15767 67.2021 7.14435L67.4602 6.55887L68.2186 5.7871L68.8174 5.02866C68.8349 4.99945 68.7905 4.90993 68.9331 4.97537C69.0172 5.01394 69.1615 4.74912 69.3695 4.74912C69.4908 4.74912 69.2954 4.52218 69.4746 4.60281C69.5681 4.64488 69.545 4.58949 69.6051 4.58949C69.609 4.57617 69.6158 4.57617 69.613 4.57617C69.5546 4.42051 70.0223 4.49156 70.1094 4.70916C70.2338 4.85197 70.4376 4.74445 70.6243 5.10836C70.7464 5.3463 71.1956 6.06968 71.0993 6.3193L71.0009 6.67854C71.0322 6.75754 70.9467 6.71126 70.9609 6.74515L70.8571 7.10438C70.6349 7.91612 70.4425 7.79318 70.3995 8.36861C70.338 8.37796 70.3892 8.42844 70.313 8.58153C69.9701 9.33787 70.1293 9.78429 69.3536 10.4976L69.0715 10.7905C68.8971 11.0039 68.5961 10.8842 68.4075 10.9235C67.9947 11.0097 67.0271 10.708 66.7522 10.4046L66.6019 10.2316C66.6019 10.1234 66.3203 9.97571 66.4477 9.88573C66.5262 9.83033 66.3645 9.83945 66.4491 9.49985C66.4769 9.38766 66.3757 9.39467 66.4011 9.34021C66.4348 9.26822 66.3619 9.24976 66.3824 9.24695C66.4304 9.23316 66.3572 9.14014 66.324 9.08685ZM33.109 5.76022C33.1059 5.76022 33.2749 5.58329 33.1994 5.57395C33.0655 5.55712 33.2546 5.21471 33.5626 5.21471C33.5692 5.20139 33.5785 5.20139 33.5799 5.18806C33.9906 4.99243 33.8099 4.93634 34.1708 4.96182C34.4641 4.98262 35.2022 4.97 35.4203 5.10813L35.7171 5.4274C35.7463 5.4274 35.7744 5.44072 35.7449 5.48069L36.1121 5.83993C36.4496 6.23609 36.404 6.45159 36.8799 6.78465C36.9701 6.86855 37.4079 7.50312 37.5093 7.50312C38.1946 8.2639 37.9994 8.25736 38.2026 8.75379C38.5078 9.33554 38.1733 9.5938 38.1002 9.79177C38.009 10.0381 37.7435 10.2943 37.5731 10.4969L37.0449 10.9094L36.2731 11.0424C36.0822 10.7694 36.1635 11.0548 35.8859 10.7762L35.6344 10.7096C35.6468 10.6545 35.4299 10.704 35.255 10.5367L34.2224 8.95316C34.2084 8.85009 34.0415 8.71967 33.9684 8.63389C33.7024 8.27909 33.7288 7.71792 33.4415 7.14365L33.166 6.46491C33.0886 6.44808 33.2321 6.34127 33.2338 6.33192C33.2487 6.25058 33.145 6.05449 33.2312 5.8661C33.2569 5.81141 33.1485 5.79762 33.109 5.76022ZM50.4045 3.03264C50.4045 2.77905 50.6971 2.10966 50.6971 1.67539L50.7969 0.943595C50.7401 0.894513 50.9177 0.885865 50.9233 0.863661C50.9285 0.847534 51.0638 0.513773 51.151 0.464457C51.2545 0.405791 50.9715 0.313936 51.1669 0.291499C51.319 0.273969 51.2351 0.173467 51.2721 0.105219C51.2833 0.0844171 51.5906 -0.0567534 51.7138 0.0255182L52.0118 0.0654857C52.1142 0.0577727 52.1422 -0.0385229 52.4175 0.158742C52.6814 0.347827 53.3639 0.642088 53.4343 0.970473L53.5275 1.32971C53.5934 1.3837 53.4854 1.38581 53.5235 1.39632C53.7659 2.34502 53.6638 1.857 53.7337 2.76689L53.8508 3.08616C53.8087 3.14904 53.8671 3.13478 53.8828 3.31241C53.8868 3.3657 53.8842 3.41876 53.8921 3.47205C53.8975 3.49869 53.9267 3.52533 53.9267 3.53866C53.9267 3.79973 53.959 3.79178 54.0331 4.01756L54.1329 4.94896L53.9239 5.84039C53.9225 5.84039 53.916 5.85372 53.9132 5.86704C53.8515 6.15078 52.8672 6.62174 52.5545 6.65212C51.8323 6.72248 52.0445 6.85687 51.1987 6.47917C51.1807 6.20384 51.0248 6.28517 51.0311 6.1599C51.0395 5.99232 50.8729 5.96146 50.8714 5.93365C50.8714 5.907 50.8834 5.89368 50.8221 5.86704C50.8168 5.86704 50.8128 5.86704 50.8142 5.86704C50.8474 5.82707 50.7385 5.7871 50.6772 5.74714C50.63 5.51154 50.4634 5.53328 50.5414 5.06863C50.5706 4.89404 50.407 3.7004 50.4697 3.63168L50.4045 3.03264ZM84.4616 35.952L84.6519 35.4463C83.9292 35.4329 83.2042 35.4196 82.4857 35.3797C81.5277 35.353 80.5629 35.3397 79.6116 35.2733C78.6764 35.2032 76.044 35.4231 75.6396 35.26C75.4354 35.1775 73.8367 35.1263 73.5452 35.1536C72.8064 35.2226 71.2119 35.1578 70.4369 35.0471C70.4369 35.8095 70.2742 36.7168 70.1735 37.522L72.5554 40.1166C73.4917 41.191 73.8196 42.5195 73.3059 43.8955C73.1035 44.4375 71.9096 46.4929 71.6146 47.0092C70.8978 48.2645 69.5658 49.0101 68.1017 48.9119C67.6235 48.8799 64.6026 48.2159 64.1843 48.1268C62.4827 49.5918 60.5545 50.7095 58.436 51.4668L57.3382 54.8598C56.806 56.3956 55.5016 57.4053 53.8825 57.4413L50.8275 57.5079C49.2136 57.5427 47.7627 56.552 47.187 55.1393C46.7817 54.1444 46.3301 52.6347 45.988 51.5998C43.7767 50.7876 42.1574 49.9193 40.3129 48.3797L37.4481 49.0318L36.868 49.1648C35.2588 49.4208 33.8496 48.8825 32.8455 47.568L30.8736 44.2016C30.2276 42.7098 30.5146 41.0342 31.5881 39.824L33.7795 37.3623C33.6264 36.5106 33.5334 35.6325 33.5 34.7542C33.108 34.822 33.2976 34.8944 32.4036 34.9272C31.5706 34.9538 30.7682 35.0202 30.0191 35.1667C29.5135 35.2742 27.9071 35.2572 27.3644 35.2464C26.699 35.2331 26.0179 35.2597 25.3579 35.2997C23.8162 35.3904 22.5032 35.3808 20.9895 35.4196C21.1244 35.909 21.1497 36.2666 21.3556 36.8168C21.3701 36.8568 21.3848 36.9101 21.3927 36.9498C21.5524 37.8279 21.8412 38.613 22.0846 39.4381C22.2309 39.9303 22.3162 40.4361 22.4344 40.9416L23.2607 44.2549C23.8116 46.3839 24.232 48.5396 24.7364 50.6686C24.9987 51.7863 25.234 52.9042 25.4628 54.0216C25.5785 54.5938 25.7276 55.1527 25.8553 55.7248L28.6922 68.4323C30.6305 67.843 32.7815 67.2788 34.7439 66.7424L38.9566 65.5981C39.7337 65.3852 40.512 65.1456 41.2863 64.9727C42.6024 64.68 43.8625 64.2409 45.161 63.9083C45.9436 63.7087 46.7179 63.4824 47.4962 63.2562C54.0167 61.3581 60.6454 59.6897 67.2267 57.9737C71.0785 56.968 74.9396 56.0086 78.7765 54.9531L83.4496 39.1055C83.5506 38.7596 83.6679 38.4267 83.7717 38.0808C83.9879 37.3495 84.1139 36.5915 84.4616 35.952ZM43.5862 93.4349C43.4114 94.1854 43.434 94.3125 42.8822 95.045C42.1586 96.0059 41.0344 96.388 39.8924 96.5752L39.058 96.5486C38.9785 96.5379 38.9147 96.4486 38.7399 96.4289C38.3059 96.3801 37.3008 95.6658 36.9834 95.3113C36.5167 94.7898 36.1682 93.8986 36.1331 93.2089C36.1306 93.1156 36.0906 93.0359 36.1079 92.9427C36.1934 92.4631 36.1215 92.485 36.2755 91.9047L36.5576 90.9866L36.7427 90.6804C36.7693 90.5341 36.7866 90.3612 36.9131 90.2679C36.9185 90.2679 36.921 90.2546 36.921 90.2413C36.921 90.0816 37.1096 90.0907 37.134 89.882C37.1491 89.7523 37.6388 89.3935 37.6834 89.3765C37.923 89.3765 38.1624 89.3632 38.4005 89.3765C39.0498 89.4031 39.6965 89.3099 40.35 89.3632L41.9401 89.3765C41.9588 89.3807 42.7827 90.0889 42.7544 90.2546C42.7214 90.4483 42.8245 90.429 42.9367 90.5872L43.3466 91.3323C43.6021 91.8851 43.7017 92.8585 43.5862 93.4349ZM86.4256 33.0912C82.9716 33.3077 79.5845 33.4804 76.1239 33.77C74.5755 33.8995 71.8393 34.0044 70.4395 34.2091C70.4395 32.9639 70.3254 31.9394 70.0908 30.7362L72.446 28.0617C73.5391 26.8318 73.5962 25.2731 72.7389 23.8836L71.1248 21.4087C70.3754 20.3064 68.9789 19.766 67.6997 20.1447L63.8676 21.249C62.5858 20.2227 59.8755 18.6874 58.263 18.3882C57.6705 18.2784 58.5099 18.6021 58.6104 18.7341C58.0616 18.8459 58.1815 18.697 58.4652 18.9337L56.8125 18.4415C57.1171 18.7337 57.2968 18.7323 57.6509 18.9471C59.3905 20.0028 60.3056 20.2223 61.9274 21.5286C62.4042 21.9126 62.0924 21.8518 62.6459 22.3003C63.7121 23.1639 63.4915 22.966 65.3204 22.5532L67.5478 22.114C69.1203 21.834 69.0109 22.0923 70.0375 23.9502C70.2186 24.2767 71.1682 25.641 70.78 25.9726L69.7035 27.1836L67.6743 29.4056C67.3669 29.7515 67.2178 30.2307 67.3255 30.7229H67.3269C67.843 33.0601 67.7998 35.2284 67.279 37.5622C67.0579 38.5534 67.8014 39.1181 68.4262 39.8242L70.414 42.0729C70.867 42.5513 70.5009 42.9779 70.2396 43.4168L68.9184 45.6655C68.6255 46.0694 67.847 45.7798 67.287 45.6521C66.41 45.4525 65.5293 45.2663 64.651 45.0667C63.8888 44.8657 63.3657 44.7205 62.6337 45.346C60.7934 46.9187 59.0811 47.9436 56.7564 48.6459C56.2175 48.8089 55.7993 49.2137 55.6002 49.7903L54.235 53.7821C54.0786 54.1925 53.6203 54.0796 53.2089 54.0749L50.5996 54.0483L50.3521 53.7821L49.2064 50.3891C48.9554 49.6402 48.7871 48.8832 47.8052 48.5927C46.3122 48.1509 44.3722 47.2191 43.1973 46.2507L41.9705 45.2127C41.1942 44.555 40.5856 44.7537 39.7363 44.9465L36.1916 45.6916C36.0256 45.6916 35.8405 45.6388 35.7524 45.4787L34.2834 42.9638C34.2514 42.9105 34.2063 42.8308 34.2103 42.8308C33.9885 42.5137 34.2241 42.2617 34.3807 42.0857L37.0699 39.0917C37.432 38.6792 37.6075 38.0937 37.4796 37.5215H37.4782C36.9993 35.3507 36.9615 32.9276 37.4729 30.7752C37.5886 30.243 37.4542 29.6576 37.0631 29.2317L34.2276 26.1047C33.8891 25.737 34.225 25.347 34.4538 24.947L35.6701 22.818C35.9289 22.3838 36.3582 22.5752 36.7481 22.6584L40.5097 23.3502C41.4348 23.5141 41.8167 22.9746 42.3231 22.5118C42.7969 22.0792 43.4282 21.6758 43.916 21.3009C44.5335 20.822 45.1615 20.3429 45.9225 20.0369C45.9585 20.0236 45.9985 20.0103 46.0291 19.9836C46.8249 19.3935 48.3199 19.4589 48.5786 18.4001L48.8315 17.3355L49.7575 14.3417C49.9915 13.7782 50.3 13.5639 50.8672 13.5033L53.8585 13.4501C54.2049 13.462 54.9217 13.7682 55.1253 14.1685C55.4504 14.8082 55.7456 15.9231 56.0714 16.3508C56.3502 16.7166 56.4778 17.3185 56.569 17.4019C56.7419 17.5615 56.8803 17.8944 57.0402 18.2136C56.8663 17.3105 56.9862 17.4587 56.931 16.9894C56.8294 16.1225 56.9462 16.0725 56.907 15.8184C56.7193 14.599 56.7384 13.3746 55.8744 12.4254C54.9747 11.4372 53.7898 11.3989 52.5265 11.3077C52.2766 11.2897 50.7522 11.1726 50.3816 11.2147C48.8266 11.3907 47.7802 12.2036 47.1921 13.6363L46.0424 16.6834C44.0106 17.3573 41.9284 18.5151 40.2916 19.8502L36.8719 19.1051C35.2249 18.7215 33.4465 19.6129 32.6114 21.0478C32.1596 21.8146 31.3287 23.1289 30.9626 23.842C30.1367 25.451 30.4333 27.2259 31.6199 28.5658L33.7435 30.9477C33.5785 31.9324 33.5128 32.261 33.5049 33.2457L32.6642 33.3411C30.9098 33.0041 27.5124 33.1148 25.7157 33.0235C23.831 32.9276 22.3293 32.6981 20.4639 32.6509L19.3289 26.836C19.0094 25.07 18.5064 21.3336 17.949 19.9701C17.7728 19.5386 17.659 19.1202 17.4154 18.7192C17.094 18.1903 17.2235 18.2162 16.7488 17.5216C15.3504 15.476 13.4238 14.3162 11.063 13.7027L9.7562 13.4765C9.61106 13.4631 9.46474 13.4631 9.321 13.4365L6.83275 13.1039L5.97451 13.0773C5.84549 13.0639 5.72162 13.024 5.59143 13.0373C5.36916 13.0639 5.14572 13.1436 4.92999 13.0773C4.67593 13.0389 4.21876 13.1305 4.12106 13.1305C3.64145 13.1305 3.11721 12.9948 2.58945 13.0508C2.04534 13.1086 1.60874 12.8903 1.41451 13.0242C1.0506 13.2752 0.722215 13.0749 0.55884 13.2504C0.439172 13.379 0.310389 13.2764 0.26341 13.3437C0.188851 13.4501 0.0972301 13.4636 0 13.5033C0.186747 13.6646 0.135795 13.7144 0.214327 13.8493C0.288886 13.9425 0.362042 14.0222 0.387285 14.1818L0.706554 14.5011L2.17552 15.2995C2.80799 15.5304 2.83744 15.6487 3.04569 15.7254C3.86817 16.0273 5.81581 16.4932 6.67826 16.5638L8.34426 16.8963C9.76274 17.1761 10.5436 17.1371 11.9263 17.8677C13.195 18.538 14.2863 19.7324 14.7126 21.1144L15.0066 22.1921L15.2488 22.9639L16.0353 26.1842L17.3432 31.2139C17.4009 31.3184 17.2929 31.3287 17.4325 31.6265L17.9048 33.3696C17.8889 33.4965 17.6145 33.6844 17.7585 34.4873L19.3593 42.4975C19.6255 43.7749 19.9181 45.0391 20.1977 46.3164C20.2229 46.4227 20.2482 46.5293 20.2669 46.649C20.4952 48.0897 20.9881 50.0696 21.3009 51.5722L23.2235 60.5805L25.4231 70.2808C25.1583 70.3888 24.2468 70.7763 24.0633 70.6933C23.8074 70.5776 22.4136 71.527 22.1166 71.678C20.8259 72.3343 19.7774 73.5418 19.0587 74.7917L18.6995 75.4305C18.3639 75.7729 18.3426 76.2046 18.2178 76.6148C17.8167 77.9316 17.7856 79.8774 17.9677 81.2454C18.3094 83.814 19.8973 86.3385 22.0885 87.6724C22.6757 88.0297 22.7511 88.1111 23.4271 88.4308C24.5653 88.9693 26.067 89.2673 27.3165 89.2825C29.3747 89.3073 31.5248 89.4288 33.5825 89.4288L32.9252 90.8127C32.5419 91.8636 32.419 93.3832 32.6511 94.4586C33.1793 96.9076 34.9334 98.8559 37.3177 99.6214C37.9476 99.8236 38.4538 99.9673 39.1274 99.9806C39.6942 99.9919 40.3278 100.05 40.9199 99.8874C41.7842 99.6497 41.4726 99.8535 42.4568 99.3818L43.7835 98.5834C45.434 97.369 46.5003 95.534 46.53 93.4739C46.5548 91.7502 46.2294 91.3582 46.2067 91.1586C46.2275 90.9616 46.0957 90.8459 46.0032 90.5865C45.8793 90.2392 45.5507 89.674 45.3205 89.3755C48.4865 89.3012 51.6355 89.3136 54.8051 89.3089C55.0886 89.3089 55.3718 89.2823 55.654 89.2956C57.0395 89.3449 60.6861 89.2998 61.8454 89.1759C62.0697 89.1519 62.5641 89.2003 62.9151 89.1493C63.3288 89.096 63.7374 88.9897 64.1698 89.0163L64.8445 88.963C65.347 88.963 65.3283 88.8663 65.7042 88.8434L67.6787 88.7901C66.9039 89.8977 66.4224 91.164 66.3614 92.5292C66.2946 94.026 66.557 95.4964 67.523 96.6673C67.5894 96.7477 67.7301 97.039 67.9103 97.1995C68.1059 97.3725 68.3507 97.4791 68.5023 97.692C68.5091 97.7053 68.521 97.7053 68.5344 97.7186C68.6554 97.7586 68.7365 97.8516 68.8284 97.9316C68.9993 98.0896 69.0579 98.0641 69.2821 98.1845L69.7677 98.5037C70.5975 99.0497 70.8929 98.9022 71.3498 99.1159C71.4522 99.1635 71.925 99.3136 72.0683 99.2488C72.6061 99.0067 72.8106 99.2351 72.9731 99.0359C73.099 98.8817 73.229 98.981 73.2659 98.916C73.3286 98.8097 73.4176 98.783 73.5055 98.7431C73.2977 98.5759 73.3274 98.4773 73.2633 98.4105C73.031 98.1683 73.2087 98.1295 72.8137 97.7983L71.5256 96.6274L71.3765 96.3478C70.9845 95.904 70.4448 95.1734 70.2149 94.618C69.9874 94.0683 70.145 94.5236 69.994 93.8729C69.7909 92.9976 70.0625 91.7605 70.5236 90.9988C71.0037 90.206 71.936 89.3984 72.8948 89.269C73.0544 89.2475 73.2285 89.1449 73.6904 89.1757C73.8797 89.1883 74.3635 89.1944 74.4888 89.269L75.0076 89.3753L75.8021 89.7612C76.8835 90.4257 77.7341 92.2022 77.5943 93.3938L77.4026 94.4848C77.2234 95.1677 76.1323 96.719 75.585 97.2526C74.5643 98.2478 74.194 98.1403 73.7525 98.4635C73.6107 98.5673 73.8315 98.5629 73.871 98.6365C73.7715 98.934 73.782 98.7784 73.871 98.8894C73.7673 98.912 73.5721 98.9686 73.505 99.0623C73.6153 99.185 73.9989 99.3744 74.1557 99.3685L75.1152 99.2222C75.2855 99.2028 75.276 99.3512 75.4492 99.2888L76.2981 98.8896C76.7578 98.7999 77.3669 98.4603 77.7577 98.1845C77.8456 98.1178 77.9094 98.0248 78.0038 97.9715C78.3151 97.7867 78.3647 97.6207 78.5082 97.5856C78.8179 97.5102 78.7961 97.3645 78.9805 97.1465C81.1962 94.5266 80.8997 90.3415 78.5666 87.912C77.7343 87.0451 77.1238 86.6143 76.0384 86.1422C75.0813 85.7257 73.3833 85.624 72.3593 85.8629C71.4658 86.0711 71.4055 85.9809 70.4273 86.435C70.3023 86.5016 70.1812 86.5549 70.0615 86.6213C69.6584 86.5281 69.2498 86.475 68.8359 86.4217C68.3743 86.3817 67.9099 86.3285 67.4641 86.2088C66.0263 85.8482 61.3249 85.8451 59.6946 85.8229L57.2503 85.7563C57.0229 85.7563 56.7966 85.7297 56.5678 85.7297L52.7836 85.6897L47.9228 85.7297L44.3979 85.7963C43.4731 85.8362 42.5496 85.8762 41.6262 85.8895C40.8864 85.9028 40.1465 85.9028 39.4067 85.9028C39.1459 85.9028 38.885 85.9428 38.6256 85.9428L35.6877 85.9695C35.0295 86.0134 34.7334 85.9589 34.2227 85.9961C32.6714 86.0819 28.0432 86.1824 26.6992 86.1024C25.1919 86.0127 23.7365 85.3482 22.6303 84.3327C21.935 83.6946 21.1712 82.5545 20.9311 81.6315C20.8584 81.3522 20.7313 81.1224 20.7395 80.9927C20.7547 80.7475 20.6661 80.5442 20.6291 80.141C20.5364 79.133 20.5782 78.138 20.8007 77.1339C21.5584 73.7171 25.0466 73.175 27.8569 72.397L39.6647 69.0173C41.1297 68.6048 42.6001 68.1922 44.0717 67.793C44.588 67.66 45.0989 67.4871 45.6166 67.3408C47.5023 66.8151 49.5993 66.2778 51.4513 65.7173L54.3614 64.9056C56.8455 64.1922 59.3372 63.4228 61.829 62.7499C68.0118 61.0804 74.2878 59.2901 80.4603 57.5605C80.8873 57.4408 81.2414 57.1082 81.3678 56.6424L83.1642 50.149C83.3865 49.2976 83.6726 48.4725 83.8495 47.6208C83.8708 47.5145 83.9028 47.3946 83.9414 47.3016C84.1414 46.8082 84.3567 45.83 84.5215 45.2258C84.8244 44.1236 87.5214 34.6336 87.4928 34.0619C87.4636 33.5038 86.9845 33.0646 86.4256 33.0912Z" fill="#738678"/>
</svg>
