<svg width="147" height="100" viewBox="0 0 147 100" fill="none" xmlns="http://www.w3.org/2000/svg">
<path d="M38.6316 9.64057C41.6313 13.9055 52.1526 11.7615 57.0385 10.1564C62.6629 8.30861 64.5375 5.68524 62.6629 2.24572C61.1629 -0.505828 49.4258 -0.161843 43.7447 0.353965C49.1419 0.870117 60.7725 1.42579 61.4718 3.62167C62.1794 5.84194 59.0839 7.40483 55.6749 8.78078C54.2419 9.35913 43.7447 11.8756 40.5065 9.46806C38.9419 8.30483 36.5866 3.10551 41.3588 0.353965C36.757 0.52613 34.8821 4.30929 38.6316 9.64057Z" fill="#738673"/>
<path d="M55.1286 88.5248C64.731 76.3987 63.6375 55.1042 50.2746 44.4269C59.8169 54.2076 63.4946 73.0633 52.7863 86.5863C44.3423 97.2499 29.0973 103.546 13.944 91.4382C1.41225 81.4248 -1.78429 64.7657 8.27043 52.0678C16.2639 41.9733 29.2354 37.9062 41.1605 39.5894C28.7317 35.653 14.02 39.9832 6.40816 49.5956C-6.61264 66.0393 2.78644 85.6774 11.8656 92.9321C22.2234 101.208 42.1079 104.968 55.1286 88.5248Z" fill="#738673"/>
<path d="M48.1495 82.9664C54.998 74.3179 54.2183 59.1306 44.6877 51.5155C51.4932 58.4911 53.6299 71.9389 45.9928 81.5836C39.9705 89.1891 29.5842 92.6987 18.7769 84.0633C9.83925 76.9217 8.04725 66.021 15.2182 56.9654C20.9193 49.7657 29.6825 46.8653 38.1877 48.0657C29.3234 45.2581 18.831 48.3464 13.4023 55.2021C4.11591 66.9296 10.8193 80.9355 17.2945 86.1094C24.6818 92.0121 38.8633 94.6939 48.1495 82.9664Z" fill="#738673"/>
<path d="M145.707 62.7922C142.635 47.6056 125.7 34.7595 108.971 38.1832C122.56 37.1244 139.298 46.4135 142.723 63.3492C145.424 76.7042 140.424 92.487 121.454 96.3695C105.766 99.5805 91.0123 91.3327 87.7961 75.4307C85.2391 62.7884 90.4769 50.1884 99.425 42.0901C88.4353 49.1275 82.2796 63.2365 84.7143 75.275C88.8796 95.8685 109.891 101.256 121.257 98.93C134.224 96.276 149.872 83.3856 145.707 62.7922Z" fill="#738673"/>
<path d="M136.972 64.6138C134.782 53.7829 122.704 44.621 110.773 47.0629C120.465 46.3076 132.089 53.3069 134.532 65.3853C136.458 74.91 132.458 85.1619 118.928 87.9307C107.739 90.2207 98.2777 84.5932 95.9839 73.252C94.1606 64.2355 97.5826 55.6248 103.964 49.8492C96.1265 54.8681 91.7362 64.9307 93.4729 73.5166C96.4434 88.2035 111.429 92.0461 119.535 90.387C128.783 88.4942 139.943 79.3011 136.972 64.6138Z" fill="#738673"/>
<path d="M100.739 13.8554C97.2798 19.653 104.652 42.8317 118.682 69.8313C112.94 69.8313 94.8725 24.4938 97.1155 14.8863C99.3581 5.27837 121.097 6.12717 120.062 16.3615C119.234 24.5492 112.356 23.1148 109.02 21.3743C111.378 21.8619 117.457 21.5416 117.457 16.3615C117.457 9.88662 104.197 8.05741 100.739 13.8554Z" fill="#738673"/>
<path d="M66.5821 70.6908C64.2642 59.5138 53.6291 25.9643 50.9023 10.6725C55.2656 15.5104 64.0597 51.3746 68.6274 70.175L66.5821 70.6908Z" fill="#738673"/>
<path d="M100.329 28.1774C90.6937 39.6471 73.826 65.2258 68.113 72.2327C55.8136 72.2327 27.7246 71.3623 27.7246 67.8588C27.7246 64.3554 46.4844 40.5396 55.4398 29.0695L56.6298 31.7227C49.3184 41.9413 31.7133 63.9361 31.9854 66.4389C32.2573 68.9413 57.1748 70.4527 66.5834 70.1746C77.2387 57.1059 95.637 28.8609 99.3095 26.3585L100.329 28.1774Z" fill="#738673"/>
<path d="M54.5898 21.7705C68.8727 21.7011 97.6428 21.6038 98.459 21.7705V24.2732L55.4393 23.5313L54.5898 21.7705Z" fill="#738673"/>
</svg>
